<svg xmlns="http://www.w3.org/2000/svg" width="88" height="80" viewBox="0 0 88 80">
    <defs>
        <clipPath id="clip-path">
            <path id="Rectangle_5263" fill="none" stroke="#707070" d="M0 0H88V80H0z" transform="translate(104 32)"/>
        </clipPath>
        <style>
            .cls-3{fill:#0074bd}.cls-4{fill:#ea2d2e}
        </style>
    </defs>
    <g id="Java" clip-path="url(#clip-path)" transform="translate(-104 -32)">
        <g id="Group_19676" transform="translate(-27.184 -25)">
            <path id="Path_16890" d="M207.141 261.264s-2.413 1.4 1.719 1.879a36.171 36.171 0 0 0 13.082-.553 22.888 22.888 0 0 0 3.479 1.7c-12.37 5.3-28-.307-18.281-3.022z" class="cls-3" transform="translate(-40.551 -147.4)"/>
            <path id="Path_16891" d="M199.974 233.481s-2.707 2 1.429 2.432a51.055 51.055 0 0 0 16.884-.809 7.469 7.469 0 0 0 2.6 1.585c-14.954 4.374-31.609.344-20.91-3.207z" class="cls-3" transform="translate(-34.896 -126.534)"/>
            <path id="Path_16892" d="M252.977 134.145c3.05 3.51-.8 6.667-.8 6.667s7.739-3.994 4.186-9c-3.32-4.665-5.865-6.982 7.914-14.973 0 0-21.63 5.4-11.3 17.3z" class="cls-4" transform="translate(-75.157 -38.933)"/>
            <path id="Path_16893" d="M198.622 280.2s1.786 1.473-1.968 2.611c-7.138 2.162-29.717 2.814-35.988.087-2.253-.982 1.974-2.341 3.3-2.629a8.629 8.629 0 0 1 2.178-.245c-2.507-1.765-16.2 3.467-6.957 4.968 25.219 4.088 45.971-1.841 39.43-4.792z" class="cls-3" transform="translate(-4.442 -161.222)"/>
            <path id="Path_16894" d="M187.5 204.66s-11.483 2.728-4.066 3.72a86.252 86.252 0 0 0 15.191-.165c4.753-.4 9.523-1.252 9.523-1.252a20.245 20.245 0 0 0-2.887 1.546c-11.663 3.068-34.19 1.639-27.7-1.5a21.707 21.707 0 0 1 9.943-2.351z" class="cls-3" transform="translate(-19.75 -104.881)"/>
            <path id="Path_16895" d="M303 214.367c11.855-6.159 6.373-12.078 2.547-11.281a8.972 8.972 0 0 0-1.355.365 2.157 2.157 0 0 1 1.012-.781c7.569-2.66 13.39 7.848-2.441 12.009a1.053 1.053 0 0 0 .237-.312z" class="cls-3" transform="translate(-114.645 -103.074)"/>
            <path id="Path_16896" d="M230.947 65s6.564 6.568-6.228 16.665c-10.258 8.1-2.339 12.721 0 18-5.989-5.4-10.381-10.159-7.435-14.586 4.327-6.5 16.315-9.647 13.666-20.079z" class="cls-4" transform="translate(-49.741)"/>
            <path id="Path_16897" d="M198.7 300.53c11.377.728 28.853-.4 29.267-5.789 0 0-.795 2.041-9.4 3.66a93.483 93.483 0 0 1-28.8.443s1.455 1.2 8.933 1.686z" class="cls-3" transform="translate(-29.787 -172.542)"/>
        </g>
    </g>
</svg>
